<svg xmlns="http://www.w3.org/2000/svg" fill="none" viewBox="0 0 48 48" height="48" width="48"><path stroke="#2f306d" stroke-linecap="round" stroke-linejoin="round" stroke-width="3" d="M3.53896 39.7428C3.74658 42.2981 5.70187 44.2534 8.25717 44.461C11.4854 44.7233 16.636 45 24 45C31.364 45 36.5146 44.7233 39.7428 44.461C42.2981 44.2534 44.2534 42.2981 44.461 39.7428C44.7233 36.5146 45 31.364 45 24C45 16.636 44.7233 11.4854 44.461 8.25717C44.2534 5.70188 42.2981 3.74658 39.7428 3.53897C36.5146 3.27668 31.364 3 24 3C16.636 3 11.4854 3.27667 8.25718 3.53896C5.70188 3.74657 3.74658 5.70187 3.53897 8.25717C3.27668 11.4854 3 16.636 3 24C3 31.364 3.27667 36.5146 3.53896 39.7428Z"></path><path stroke="#2f306d" stroke-linecap="round" stroke-linejoin="round" stroke-width="3" d="M29.516 44.9443V30.0393H35.0549C35.943 30.0393 36.7424 29.4545 36.8722 28.5759C37.0869 27.1227 36.9957 25.8012 36.8568 24.8615C36.7293 23.9988 35.9605 23.4309 35.0885 23.4309H29.516C29.516 18.4374 30.347 17.7108 35.0309 17.6199C35.9296 17.6025 36.7364 17.0091 36.8668 16.1197C37.0861 14.6247 36.9987 13.3185 36.8611 12.3996C36.734 11.5508 35.9729 10.9975 35.1147 11.005C26.8363 11.0772 22.1213 12.056 22.1213 23.4309H17.8325C16.999 23.4309 16.259 23.9533 16.1329 24.7772C15.9971 25.6649 15.915 26.9516 16.1417 28.5166C16.2727 29.4207 17.0859 30.0393 17.9995 30.0393H22.1213V44.9936"></path></svg>