<svg xmlns="http://www.w3.org/2000/svg" fill="none" viewBox="0 0 48 48" stroke-width="3" height="48" width="48"><path stroke="#2f306d" stroke-linecap="round" stroke-linejoin="round" d="M3.26227 35.4675C3.52014 40.5885 7.41154 44.4799 12.5325 44.7377C15.5044 44.8874 19.3017 45 24 45C28.6983 45 32.4956 44.8874 35.4675 44.7377C40.5885 44.4799 44.4798 40.5885 44.7377 35.4675C44.8874 32.4956 45 28.6983 45 24C45 19.3017 44.8874 15.5044 44.7377 12.5325C44.4799 7.41154 40.5885 3.52015 35.4675 3.26228C32.4956 3.11262 28.6983 3 24 3C19.3017 3 15.5044 3.11262 12.5325 3.26227C7.41154 3.52014 3.52015 7.41154 3.26228 12.5325C3.11262 15.5044 3 19.3017 3 24C3 28.6983 3.11262 32.4956 3.26227 35.4675Z"></path><circle cx="24" cy="24" r="10" stroke="#2f306d" stroke-linecap="round" stroke-linejoin="round"></circle><path stroke="#2f306d" stroke-linecap="round" stroke-linejoin="round" d="M36 11H37"></path></svg>